<svg xmlns="http://www.w3.org/2000/svg" xml:space="preserve" width="1500" height="1500" data-id="lg_0wTMOk5ppzIq6p0D7U" data-version="1" viewBox="0 0 1500 1500"><path fill="#fefbf6" stroke="transparent" d="M0 0h1500v1500H0z"/><g data-padding="20"><path d="M754.704 312.912a20.448 20.448 0 1 0 0 40.896 20.448 20.448 0 1 0 0-40.896M454.992 604.464l58.752-71.616a14.19 14.19 0 1 0-21.888-18.048l-66.912 81.6c-4.608 5.664-4.224 13.92.96 19.008l72.864 72.96a14.11 14.11 0 0 0 19.968 0 14.25 14.25 0 0 0 0-20.16ZM702.96 586.8 630 513.84A14.221 14.221 0 1 0 609.936 534l63.84 63.744-58.752 71.616a14.208 14.208 0 0 0 21.888 18.048l66.912-81.6c4.608-5.664 4.224-13.92-.96-19.008"/><path d="M1129.872 270H370.128c-47.328 0-90.528 38.592-90.528 86.016v533.76c0 47.616 43.2 90.624 90.528 90.624h300.288c1.536 19.2 2.976 79.392-3.072 99.552-11.232 16.608-129.6 51.456-232.032 75.36-6.336 1.536-11.712 6.048-11.712 12.672v47.904c0 7.776 8.064 14.112 15.84 14.112h621.12c7.872 0 15.84-6.336 15.84-14.112v-48c0-6.528-5.376-12.192-11.808-13.728-103.008-23.808-221.568-57.6-232.32-73.152-6.432-21.12-6.24-81.408-5.088-100.608h302.688c47.328 0 90.528-43.104 90.528-90.528V356.016c0-47.424-43.2-86.016-90.528-86.016m-82.272 909.12v22.08H452.4v-22.08c105.6-25.344 231.36-58.752 240.96-89.856 8.256-27.168 6.72-89.664 5.376-108.864H798.96c-.96 19.2-1.92 81.696 6.528 108.864 9.6 31.104 136.512 64.512 242.112 89.856m144-285.312c0 31.968-35.52 57.792-67.392 57.792H366.192a57.6 57.6 0 0 1-57.792-57.792V356.592c0-31.872 25.92-57.792 57.792-57.792h758.016c31.968 0 67.392 25.92 67.392 57.792Z"/><path d="M1129.488 385.2H370.512c-7.776 0-14.112 6.336-14.112 14.112v422.976c0 7.776 6.336 14.112 14.112 14.112h758.976c7.776 0 14.112-6.336 14.112-14.112V399.312c0-7.776-6.336-14.112-14.112-14.112M385.2 414h355.2v393.6H385.2Zm729.6 393.6H769.2V414h345.6Z"/><path d="M802.8 615.6h278.4a14.38 14.38 0 0 0 14.4-14.4V447.6a14.38 14.38 0 0 0-14.4-14.4H802.8a14.38 14.38 0 0 0-14.4 14.4v153.6a14.38 14.38 0 0 0 14.4 14.4M817.2 462h249.6v124.8H817.2Zm259.2 182.4H807.6a14.4 14.4 0 1 0 0 28.8h268.8a14.4 14.4 0 0 0 0-28.8m0 57.6H807.6a14.4 14.4 0 1 0 0 28.8h268.8a14.4 14.4 0 0 0 0-28.8m0 57.6H807.6a14.4 14.4 0 1 0 0 28.8h268.8a14.4 14.4 0 0 0 0-28.8"/><path fill="transparent" stroke="transparent" stroke-width="1.961" d="M259.804 250h980.392v1000H259.804z"/></g></svg>